<svg id="visual" viewBox="0 0 1920 1080" width="1920" height="1080" xmlns="http://www.w3.org/2000/svg" xmlns:xlink="http://www.w3.org/1999/xlink" version="1.1"><rect x="0" y="0" width="1920" height="1080" fill="#001220"></rect><defs><linearGradient id="grad1_0" x1="43.8%" y1="0%" x2="100%" y2="100%"><stop offset="14.444444444444446%" stop-color="#001220" stop-opacity="1"></stop><stop offset="85.55555555555554%" stop-color="#001220" stop-opacity="1"></stop></linearGradient></defs><defs><linearGradient id="grad2_0" x1="0%" y1="0%" x2="56.3%" y2="100%"><stop offset="14.444444444444446%" stop-color="#001220" stop-opacity="1"></stop><stop offset="85.55555555555554%" stop-color="#001220" stop-opacity="1"></stop></linearGradient></defs><g transform="translate(1920, 0)"><path d="M0 810C-87.4 760.1 -174.8 710.2 -282 680.9C-389.3 651.6 -516.5 642.7 -572.8 572.8C-629 502.8 -614.4 371.6 -642.1 266C-669.8 160.3 -739.9 80.2 -810 0L0 0Z" fill="#FBAE3C"></path></g><g transform="translate(0, 1080)"><path d="M0 -810C80 -734 160 -658 260.2 -628.2C360.5 -598.5 480.9 -615 569.2 -569.2C657.5 -523.4 713.6 -415.2 748.3 -310C783.1 -204.7 796.6 -102.4 810 0L0 0Z" fill="#FBAE3C"></path></g></svg>